<svg xmlns="http://www.w3.org/2000/svg" viewBox="0 0 740 360" width="740" height="360" role="img">
<defs>
<linearGradient id="bg" x1="0" y1="0" x2="1" y2="1"><stop offset="0" stop-color="#1a1a1a"/><stop offset="1" stop-color="#2d2d2d"/></linearGradient>
<radialGradient id="glow" cx="0.85" cy="0.1" r="0.7"><stop offset="0" stop-color="#60a5fa" stop-opacity="0.28"/><stop offset="1" stop-color="#60a5fa" stop-opacity="0"/></radialGradient>
<pattern id="dots" width="22" height="22" patternUnits="userSpaceOnUse"><circle cx="2" cy="2" r="1.2" fill="#ffffff" fill-opacity="0.07"/></pattern>
</defs>
<rect width="740" height="360" fill="url(#bg)"/><rect width="740" height="360" fill="url(#dots)"/><rect width="740" height="360" fill="url(#glow)"/>
<text x="370.0" y="96" text-anchor="middle" font-family="-apple-system, BlinkMacSystemFont, Segoe UI, Roboto, sans-serif" font-size="19" font-weight="700" letter-spacing="3" fill="#60a5fa">CLOUD AND DEVOPS</text>
<rect x="39.4" y="174.7" width="109.2" height="50.6" rx="8" fill="#111827" stroke="#60a5fa" stroke-width="2"/><text x="94.0" y="207.9" text-anchor="middle" font-family="ui-monospace, SFMono-Regular, Menlo, Consolas, monospace" font-size="22" font-weight="500" fill="#e5e7eb">source</text><path d="M156.6 200 H178.6" stroke="#60a5fa" stroke-width="2.5" stroke-linecap="round"/><path d="M174.6 194 L184.6 200 L174.6 206" fill="none" stroke="#60a5fa" stroke-width="2.5" stroke-linecap="round" stroke-linejoin="round"/><rect x="192.6" y="174.7" width="188.4" height="50.6" rx="8" fill="#111827" stroke="#60a5fa" stroke-width="2"/><text x="286.8" y="207.9" text-anchor="middle" font-family="ui-monospace, SFMono-Regular, Menlo, Consolas, monospace" font-size="22" font-weight="500" fill="#e5e7eb">CodeArtifact</text><path d="M389.0 200 H411.0" stroke="#60a5fa" stroke-width="2.5" stroke-linecap="round"/><path d="M407.0 194 L417.0 200 L407.0 206" fill="none" stroke="#60a5fa" stroke-width="2.5" stroke-linecap="round" stroke-linejoin="round"/><rect x="425.0" y="174.7" width="148.8" height="50.6" rx="8" fill="#111827" stroke="#60a5fa" stroke-width="2"/><text x="499.4" y="207.9" text-anchor="middle" font-family="ui-monospace, SFMono-Regular, Menlo, Consolas, monospace" font-size="22" font-weight="500" fill="#e5e7eb">CodeBuild</text><path d="M581.8 200 H603.8" stroke="#60a5fa" stroke-width="2.5" stroke-linecap="round"/><path d="M599.8 194 L609.8 200 L599.8 206" fill="none" stroke="#60a5fa" stroke-width="2.5" stroke-linecap="round" stroke-linejoin="round"/><rect x="617.8" y="174.7" width="82.8" height="50.6" rx="8" fill="#60a5fa" stroke="#60a5fa" stroke-width="2"/><text x="659.2" y="207.9" text-anchor="middle" font-family="ui-monospace, SFMono-Regular, Menlo, Consolas, monospace" font-size="22" font-weight="700" fill="#0b1220">.war</text>
</svg>
